%TF.GenerationSoftware,KiCad,Pcbnew,10.0.6*%
%TF.CreationDate,2026-09-15T00:52:04-04:00*%
%TF.ProjectId,codex-micro-led-driver,636f6465-782d-46d6-9963-726f2d6c6564,rev?*%
%TF.SameCoordinates,Original*%
%TF.FileFunction,Legend,Top*%
%TF.FilePolarity,Positive*%
%FSLAX46Y46*%
G04 Gerber Fmt 4.6, Leading zero omitted, Abs format (unit mm)*
G04 Created by KiCad (PCBNEW 10.0.6) date 2026-09-15 00:52:04*
%MOMM*%
%LPD*%
G01*
G04 APERTURE LIST*
%ADD10C,0.150000*%
%ADD11C,0.120000*%
G04 APERTURE END LIST*
D10*
X4366666Y-13462295D02*
X4366666Y-12662295D01*
X4823809Y-13462295D02*
X4480951Y-13005152D01*
X4823809Y-12662295D02*
X4366666Y-13119438D01*
X5433332Y-13043247D02*
X5547618Y-13081342D01*
X5547618Y-13081342D02*
X5585713Y-13119438D01*
X5585713Y-13119438D02*
X5623809Y-13195628D01*
X5623809Y-13195628D02*
X5623809Y-13309914D01*
X5623809Y-13309914D02*
X5585713Y-13386104D01*
X5585713Y-13386104D02*
X5547618Y-13424200D01*
X5547618Y-13424200D02*
X5471428Y-13462295D01*
X5471428Y-13462295D02*
X5166666Y-13462295D01*
X5166666Y-13462295D02*
X5166666Y-12662295D01*
X5166666Y-12662295D02*
X5433332Y-12662295D01*
X5433332Y-12662295D02*
X5509523Y-12700390D01*
X5509523Y-12700390D02*
X5547618Y-12738485D01*
X5547618Y-12738485D02*
X5585713Y-12814676D01*
X5585713Y-12814676D02*
X5585713Y-12890866D01*
X5585713Y-12890866D02*
X5547618Y-12967057D01*
X5547618Y-12967057D02*
X5509523Y-13005152D01*
X5509523Y-13005152D02*
X5433332Y-13043247D01*
X5433332Y-13043247D02*
X5166666Y-13043247D01*
X5928570Y-12738485D02*
X5966666Y-12700390D01*
X5966666Y-12700390D02*
X6042856Y-12662295D01*
X6042856Y-12662295D02*
X6233332Y-12662295D01*
X6233332Y-12662295D02*
X6309523Y-12700390D01*
X6309523Y-12700390D02*
X6347618Y-12738485D01*
X6347618Y-12738485D02*
X6385713Y-12814676D01*
X6385713Y-12814676D02*
X6385713Y-12890866D01*
X6385713Y-12890866D02*
X6347618Y-13005152D01*
X6347618Y-13005152D02*
X5890475Y-13462295D01*
X5890475Y-13462295D02*
X6385713Y-13462295D01*
X6880952Y-12662295D02*
X6957142Y-12662295D01*
X6957142Y-12662295D02*
X7033333Y-12700390D01*
X7033333Y-12700390D02*
X7071428Y-12738485D01*
X7071428Y-12738485D02*
X7109523Y-12814676D01*
X7109523Y-12814676D02*
X7147618Y-12967057D01*
X7147618Y-12967057D02*
X7147618Y-13157533D01*
X7147618Y-13157533D02*
X7109523Y-13309914D01*
X7109523Y-13309914D02*
X7071428Y-13386104D01*
X7071428Y-13386104D02*
X7033333Y-13424200D01*
X7033333Y-13424200D02*
X6957142Y-13462295D01*
X6957142Y-13462295D02*
X6880952Y-13462295D01*
X6880952Y-13462295D02*
X6804761Y-13424200D01*
X6804761Y-13424200D02*
X6766666Y-13386104D01*
X6766666Y-13386104D02*
X6728571Y-13309914D01*
X6728571Y-13309914D02*
X6690475Y-13157533D01*
X6690475Y-13157533D02*
X6690475Y-12967057D01*
X6690475Y-12967057D02*
X6728571Y-12814676D01*
X6728571Y-12814676D02*
X6766666Y-12738485D01*
X6766666Y-12738485D02*
X6804761Y-12700390D01*
X6804761Y-12700390D02*
X6880952Y-12662295D01*
X7833333Y-12928961D02*
X7833333Y-13462295D01*
X7642857Y-12624200D02*
X7452380Y-13195628D01*
X7452380Y-13195628D02*
X7947619Y-13195628D01*
X8404762Y-12662295D02*
X8480952Y-12662295D01*
X8480952Y-12662295D02*
X8557143Y-12700390D01*
X8557143Y-12700390D02*
X8595238Y-12738485D01*
X8595238Y-12738485D02*
X8633333Y-12814676D01*
X8633333Y-12814676D02*
X8671428Y-12967057D01*
X8671428Y-12967057D02*
X8671428Y-13157533D01*
X8671428Y-13157533D02*
X8633333Y-13309914D01*
X8633333Y-13309914D02*
X8595238Y-13386104D01*
X8595238Y-13386104D02*
X8557143Y-13424200D01*
X8557143Y-13424200D02*
X8480952Y-13462295D01*
X8480952Y-13462295D02*
X8404762Y-13462295D01*
X8404762Y-13462295D02*
X8328571Y-13424200D01*
X8328571Y-13424200D02*
X8290476Y-13386104D01*
X8290476Y-13386104D02*
X8252381Y-13309914D01*
X8252381Y-13309914D02*
X8214285Y-13157533D01*
X8214285Y-13157533D02*
X8214285Y-12967057D01*
X8214285Y-12967057D02*
X8252381Y-12814676D01*
X8252381Y-12814676D02*
X8290476Y-12738485D01*
X8290476Y-12738485D02*
X8328571Y-12700390D01*
X8328571Y-12700390D02*
X8404762Y-12662295D01*
X3757142Y-13900390D02*
X3680952Y-13862295D01*
X3680952Y-13862295D02*
X3566666Y-13862295D01*
X3566666Y-13862295D02*
X3452380Y-13900390D01*
X3452380Y-13900390D02*
X3376190Y-13976580D01*
X3376190Y-13976580D02*
X3338095Y-14052771D01*
X3338095Y-14052771D02*
X3299999Y-14205152D01*
X3299999Y-14205152D02*
X3299999Y-14319438D01*
X3299999Y-14319438D02*
X3338095Y-14471819D01*
X3338095Y-14471819D02*
X3376190Y-14548009D01*
X3376190Y-14548009D02*
X3452380Y-14624200D01*
X3452380Y-14624200D02*
X3566666Y-14662295D01*
X3566666Y-14662295D02*
X3642857Y-14662295D01*
X3642857Y-14662295D02*
X3757142Y-14624200D01*
X3757142Y-14624200D02*
X3795238Y-14586104D01*
X3795238Y-14586104D02*
X3795238Y-14319438D01*
X3795238Y-14319438D02*
X3642857Y-14319438D01*
X5966667Y-14662295D02*
X5966667Y-13862295D01*
X5966667Y-13862295D02*
X6157143Y-13862295D01*
X6157143Y-13862295D02*
X6271429Y-13900390D01*
X6271429Y-13900390D02*
X6347619Y-13976580D01*
X6347619Y-13976580D02*
X6385714Y-14052771D01*
X6385714Y-14052771D02*
X6423810Y-14205152D01*
X6423810Y-14205152D02*
X6423810Y-14319438D01*
X6423810Y-14319438D02*
X6385714Y-14471819D01*
X6385714Y-14471819D02*
X6347619Y-14548009D01*
X6347619Y-14548009D02*
X6271429Y-14624200D01*
X6271429Y-14624200D02*
X6157143Y-14662295D01*
X6157143Y-14662295D02*
X5966667Y-14662295D01*
X8976191Y-13862295D02*
X8595239Y-13862295D01*
X8595239Y-13862295D02*
X8557143Y-14243247D01*
X8557143Y-14243247D02*
X8595239Y-14205152D01*
X8595239Y-14205152D02*
X8671429Y-14167057D01*
X8671429Y-14167057D02*
X8861905Y-14167057D01*
X8861905Y-14167057D02*
X8938096Y-14205152D01*
X8938096Y-14205152D02*
X8976191Y-14243247D01*
X8976191Y-14243247D02*
X9014286Y-14319438D01*
X9014286Y-14319438D02*
X9014286Y-14509914D01*
X9014286Y-14509914D02*
X8976191Y-14586104D01*
X8976191Y-14586104D02*
X8938096Y-14624200D01*
X8938096Y-14624200D02*
X8861905Y-14662295D01*
X8861905Y-14662295D02*
X8671429Y-14662295D01*
X8671429Y-14662295D02*
X8595239Y-14624200D01*
X8595239Y-14624200D02*
X8557143Y-14586104D01*
X9242858Y-13862295D02*
X9509525Y-14662295D01*
X9509525Y-14662295D02*
X9776191Y-13862295D01*
X8066667Y-20286104D02*
X8028571Y-20324200D01*
X8028571Y-20324200D02*
X7914286Y-20362295D01*
X7914286Y-20362295D02*
X7838095Y-20362295D01*
X7838095Y-20362295D02*
X7723809Y-20324200D01*
X7723809Y-20324200D02*
X7647619Y-20248009D01*
X7647619Y-20248009D02*
X7609524Y-20171819D01*
X7609524Y-20171819D02*
X7571428Y-20019438D01*
X7571428Y-20019438D02*
X7571428Y-19905152D01*
X7571428Y-19905152D02*
X7609524Y-19752771D01*
X7609524Y-19752771D02*
X7647619Y-19676580D01*
X7647619Y-19676580D02*
X7723809Y-19600390D01*
X7723809Y-19600390D02*
X7838095Y-19562295D01*
X7838095Y-19562295D02*
X7914286Y-19562295D01*
X7914286Y-19562295D02*
X8028571Y-19600390D01*
X8028571Y-19600390D02*
X8066667Y-19638485D01*
X8371428Y-19638485D02*
X8409524Y-19600390D01*
X8409524Y-19600390D02*
X8485714Y-19562295D01*
X8485714Y-19562295D02*
X8676190Y-19562295D01*
X8676190Y-19562295D02*
X8752381Y-19600390D01*
X8752381Y-19600390D02*
X8790476Y-19638485D01*
X8790476Y-19638485D02*
X8828571Y-19714676D01*
X8828571Y-19714676D02*
X8828571Y-19790866D01*
X8828571Y-19790866D02*
X8790476Y-19905152D01*
X8790476Y-19905152D02*
X8333333Y-20362295D01*
X8333333Y-20362295D02*
X8828571Y-20362295D01*
X9780953Y-20057533D02*
X10390477Y-20057533D01*
X10085715Y-20362295D02*
X10085715Y-19752771D01*
X17390476Y-19062295D02*
X17390476Y-19709914D01*
X17390476Y-19709914D02*
X17428571Y-19786104D01*
X17428571Y-19786104D02*
X17466666Y-19824200D01*
X17466666Y-19824200D02*
X17542857Y-19862295D01*
X17542857Y-19862295D02*
X17695238Y-19862295D01*
X17695238Y-19862295D02*
X17771428Y-19824200D01*
X17771428Y-19824200D02*
X17809523Y-19786104D01*
X17809523Y-19786104D02*
X17847619Y-19709914D01*
X17847619Y-19709914D02*
X17847619Y-19062295D01*
X18647618Y-19862295D02*
X18190475Y-19862295D01*
X18419047Y-19862295D02*
X18419047Y-19062295D01*
X18419047Y-19062295D02*
X18342856Y-19176580D01*
X18342856Y-19176580D02*
X18266666Y-19252771D01*
X18266666Y-19252771D02*
X18190475Y-19290866D01*
X8666666Y-29086104D02*
X8628570Y-29124200D01*
X8628570Y-29124200D02*
X8514285Y-29162295D01*
X8514285Y-29162295D02*
X8438094Y-29162295D01*
X8438094Y-29162295D02*
X8323808Y-29124200D01*
X8323808Y-29124200D02*
X8247618Y-29048009D01*
X8247618Y-29048009D02*
X8209523Y-28971819D01*
X8209523Y-28971819D02*
X8171427Y-28819438D01*
X8171427Y-28819438D02*
X8171427Y-28705152D01*
X8171427Y-28705152D02*
X8209523Y-28552771D01*
X8209523Y-28552771D02*
X8247618Y-28476580D01*
X8247618Y-28476580D02*
X8323808Y-28400390D01*
X8323808Y-28400390D02*
X8438094Y-28362295D01*
X8438094Y-28362295D02*
X8514285Y-28362295D01*
X8514285Y-28362295D02*
X8628570Y-28400390D01*
X8628570Y-28400390D02*
X8666666Y-28438485D01*
X9161904Y-28362295D02*
X9314285Y-28362295D01*
X9314285Y-28362295D02*
X9390475Y-28400390D01*
X9390475Y-28400390D02*
X9466666Y-28476580D01*
X9466666Y-28476580D02*
X9504761Y-28628961D01*
X9504761Y-28628961D02*
X9504761Y-28895628D01*
X9504761Y-28895628D02*
X9466666Y-29048009D01*
X9466666Y-29048009D02*
X9390475Y-29124200D01*
X9390475Y-29124200D02*
X9314285Y-29162295D01*
X9314285Y-29162295D02*
X9161904Y-29162295D01*
X9161904Y-29162295D02*
X9085713Y-29124200D01*
X9085713Y-29124200D02*
X9009523Y-29048009D01*
X9009523Y-29048009D02*
X8971427Y-28895628D01*
X8971427Y-28895628D02*
X8971427Y-28628961D01*
X8971427Y-28628961D02*
X9009523Y-28476580D01*
X9009523Y-28476580D02*
X9085713Y-28400390D01*
X9085713Y-28400390D02*
X9161904Y-28362295D01*
X9847618Y-29162295D02*
X9847618Y-28362295D01*
X9847618Y-28362295D02*
X10038094Y-28362295D01*
X10038094Y-28362295D02*
X10152380Y-28400390D01*
X10152380Y-28400390D02*
X10228570Y-28476580D01*
X10228570Y-28476580D02*
X10266665Y-28552771D01*
X10266665Y-28552771D02*
X10304761Y-28705152D01*
X10304761Y-28705152D02*
X10304761Y-28819438D01*
X10304761Y-28819438D02*
X10266665Y-28971819D01*
X10266665Y-28971819D02*
X10228570Y-29048009D01*
X10228570Y-29048009D02*
X10152380Y-29124200D01*
X10152380Y-29124200D02*
X10038094Y-29162295D01*
X10038094Y-29162295D02*
X9847618Y-29162295D01*
X10647618Y-28743247D02*
X10914284Y-28743247D01*
X11028570Y-29162295D02*
X10647618Y-29162295D01*
X10647618Y-29162295D02*
X10647618Y-28362295D01*
X10647618Y-28362295D02*
X11028570Y-28362295D01*
X11295237Y-28362295D02*
X11828571Y-29162295D01*
X11828571Y-28362295D02*
X11295237Y-29162295D01*
X12742857Y-29162295D02*
X12742857Y-28362295D01*
X12742857Y-28362295D02*
X13009523Y-28933723D01*
X13009523Y-28933723D02*
X13276190Y-28362295D01*
X13276190Y-28362295D02*
X13276190Y-29162295D01*
X13657143Y-29162295D02*
X13657143Y-28362295D01*
X14495238Y-29086104D02*
X14457142Y-29124200D01*
X14457142Y-29124200D02*
X14342857Y-29162295D01*
X14342857Y-29162295D02*
X14266666Y-29162295D01*
X14266666Y-29162295D02*
X14152380Y-29124200D01*
X14152380Y-29124200D02*
X14076190Y-29048009D01*
X14076190Y-29048009D02*
X14038095Y-28971819D01*
X14038095Y-28971819D02*
X13999999Y-28819438D01*
X13999999Y-28819438D02*
X13999999Y-28705152D01*
X13999999Y-28705152D02*
X14038095Y-28552771D01*
X14038095Y-28552771D02*
X14076190Y-28476580D01*
X14076190Y-28476580D02*
X14152380Y-28400390D01*
X14152380Y-28400390D02*
X14266666Y-28362295D01*
X14266666Y-28362295D02*
X14342857Y-28362295D01*
X14342857Y-28362295D02*
X14457142Y-28400390D01*
X14457142Y-28400390D02*
X14495238Y-28438485D01*
X15295238Y-29162295D02*
X15028571Y-28781342D01*
X14838095Y-29162295D02*
X14838095Y-28362295D01*
X14838095Y-28362295D02*
X15142857Y-28362295D01*
X15142857Y-28362295D02*
X15219047Y-28400390D01*
X15219047Y-28400390D02*
X15257142Y-28438485D01*
X15257142Y-28438485D02*
X15295238Y-28514676D01*
X15295238Y-28514676D02*
X15295238Y-28628961D01*
X15295238Y-28628961D02*
X15257142Y-28705152D01*
X15257142Y-28705152D02*
X15219047Y-28743247D01*
X15219047Y-28743247D02*
X15142857Y-28781342D01*
X15142857Y-28781342D02*
X14838095Y-28781342D01*
X15790476Y-28362295D02*
X15942857Y-28362295D01*
X15942857Y-28362295D02*
X16019047Y-28400390D01*
X16019047Y-28400390D02*
X16095238Y-28476580D01*
X16095238Y-28476580D02*
X16133333Y-28628961D01*
X16133333Y-28628961D02*
X16133333Y-28895628D01*
X16133333Y-28895628D02*
X16095238Y-29048009D01*
X16095238Y-29048009D02*
X16019047Y-29124200D01*
X16019047Y-29124200D02*
X15942857Y-29162295D01*
X15942857Y-29162295D02*
X15790476Y-29162295D01*
X15790476Y-29162295D02*
X15714285Y-29124200D01*
X15714285Y-29124200D02*
X15638095Y-29048009D01*
X15638095Y-29048009D02*
X15599999Y-28895628D01*
X15599999Y-28895628D02*
X15599999Y-28628961D01*
X15599999Y-28628961D02*
X15638095Y-28476580D01*
X15638095Y-28476580D02*
X15714285Y-28400390D01*
X15714285Y-28400390D02*
X15790476Y-28362295D01*
X17466666Y-29162295D02*
X17085714Y-29162295D01*
X17085714Y-29162295D02*
X17085714Y-28362295D01*
X17733333Y-28743247D02*
X17999999Y-28743247D01*
X18114285Y-29162295D02*
X17733333Y-29162295D01*
X17733333Y-29162295D02*
X17733333Y-28362295D01*
X17733333Y-28362295D02*
X18114285Y-28362295D01*
X18457143Y-29162295D02*
X18457143Y-28362295D01*
X18457143Y-28362295D02*
X18647619Y-28362295D01*
X18647619Y-28362295D02*
X18761905Y-28400390D01*
X18761905Y-28400390D02*
X18838095Y-28476580D01*
X18838095Y-28476580D02*
X18876190Y-28552771D01*
X18876190Y-28552771D02*
X18914286Y-28705152D01*
X18914286Y-28705152D02*
X18914286Y-28819438D01*
X18914286Y-28819438D02*
X18876190Y-28971819D01*
X18876190Y-28971819D02*
X18838095Y-29048009D01*
X18838095Y-29048009D02*
X18761905Y-29124200D01*
X18761905Y-29124200D02*
X18647619Y-29162295D01*
X18647619Y-29162295D02*
X18457143Y-29162295D01*
X19866667Y-29162295D02*
X19866667Y-28362295D01*
X19866667Y-28362295D02*
X20057143Y-28362295D01*
X20057143Y-28362295D02*
X20171429Y-28400390D01*
X20171429Y-28400390D02*
X20247619Y-28476580D01*
X20247619Y-28476580D02*
X20285714Y-28552771D01*
X20285714Y-28552771D02*
X20323810Y-28705152D01*
X20323810Y-28705152D02*
X20323810Y-28819438D01*
X20323810Y-28819438D02*
X20285714Y-28971819D01*
X20285714Y-28971819D02*
X20247619Y-29048009D01*
X20247619Y-29048009D02*
X20171429Y-29124200D01*
X20171429Y-29124200D02*
X20057143Y-29162295D01*
X20057143Y-29162295D02*
X19866667Y-29162295D01*
X21123810Y-29162295D02*
X20857143Y-28781342D01*
X20666667Y-29162295D02*
X20666667Y-28362295D01*
X20666667Y-28362295D02*
X20971429Y-28362295D01*
X20971429Y-28362295D02*
X21047619Y-28400390D01*
X21047619Y-28400390D02*
X21085714Y-28438485D01*
X21085714Y-28438485D02*
X21123810Y-28514676D01*
X21123810Y-28514676D02*
X21123810Y-28628961D01*
X21123810Y-28628961D02*
X21085714Y-28705152D01*
X21085714Y-28705152D02*
X21047619Y-28743247D01*
X21047619Y-28743247D02*
X20971429Y-28781342D01*
X20971429Y-28781342D02*
X20666667Y-28781342D01*
X21466667Y-29162295D02*
X21466667Y-28362295D01*
X21733333Y-28362295D02*
X22000000Y-29162295D01*
X22000000Y-29162295D02*
X22266666Y-28362295D01*
X22533333Y-28743247D02*
X22799999Y-28743247D01*
X22914285Y-29162295D02*
X22533333Y-29162295D01*
X22533333Y-29162295D02*
X22533333Y-28362295D01*
X22533333Y-28362295D02*
X22914285Y-28362295D01*
X23714286Y-29162295D02*
X23447619Y-28781342D01*
X23257143Y-29162295D02*
X23257143Y-28362295D01*
X23257143Y-28362295D02*
X23561905Y-28362295D01*
X23561905Y-28362295D02*
X23638095Y-28400390D01*
X23638095Y-28400390D02*
X23676190Y-28438485D01*
X23676190Y-28438485D02*
X23714286Y-28514676D01*
X23714286Y-28514676D02*
X23714286Y-28628961D01*
X23714286Y-28628961D02*
X23676190Y-28705152D01*
X23676190Y-28705152D02*
X23638095Y-28743247D01*
X23638095Y-28743247D02*
X23561905Y-28781342D01*
X23561905Y-28781342D02*
X23257143Y-28781342D01*
X25123810Y-29162295D02*
X24857143Y-28781342D01*
X24666667Y-29162295D02*
X24666667Y-28362295D01*
X24666667Y-28362295D02*
X24971429Y-28362295D01*
X24971429Y-28362295D02*
X25047619Y-28400390D01*
X25047619Y-28400390D02*
X25085714Y-28438485D01*
X25085714Y-28438485D02*
X25123810Y-28514676D01*
X25123810Y-28514676D02*
X25123810Y-28628961D01*
X25123810Y-28628961D02*
X25085714Y-28705152D01*
X25085714Y-28705152D02*
X25047619Y-28743247D01*
X25047619Y-28743247D02*
X24971429Y-28781342D01*
X24971429Y-28781342D02*
X24666667Y-28781342D01*
X25466667Y-28743247D02*
X25733333Y-28743247D01*
X25847619Y-29162295D02*
X25466667Y-29162295D01*
X25466667Y-29162295D02*
X25466667Y-28362295D01*
X25466667Y-28362295D02*
X25847619Y-28362295D01*
X26076191Y-28362295D02*
X26342858Y-29162295D01*
X26342858Y-29162295D02*
X26609524Y-28362295D01*
X27447619Y-28933723D02*
X27828572Y-28933723D01*
X27371429Y-29162295D02*
X27638096Y-28362295D01*
X27638096Y-28362295D02*
X27904762Y-29162295D01*
X19866667Y-13786104D02*
X19828571Y-13824200D01*
X19828571Y-13824200D02*
X19714286Y-13862295D01*
X19714286Y-13862295D02*
X19638095Y-13862295D01*
X19638095Y-13862295D02*
X19523809Y-13824200D01*
X19523809Y-13824200D02*
X19447619Y-13748009D01*
X19447619Y-13748009D02*
X19409524Y-13671819D01*
X19409524Y-13671819D02*
X19371428Y-13519438D01*
X19371428Y-13519438D02*
X19371428Y-13405152D01*
X19371428Y-13405152D02*
X19409524Y-13252771D01*
X19409524Y-13252771D02*
X19447619Y-13176580D01*
X19447619Y-13176580D02*
X19523809Y-13100390D01*
X19523809Y-13100390D02*
X19638095Y-13062295D01*
X19638095Y-13062295D02*
X19714286Y-13062295D01*
X19714286Y-13062295D02*
X19828571Y-13100390D01*
X19828571Y-13100390D02*
X19866667Y-13138485D01*
X20628571Y-13862295D02*
X20171428Y-13862295D01*
X20400000Y-13862295D02*
X20400000Y-13062295D01*
X20400000Y-13062295D02*
X20323809Y-13176580D01*
X20323809Y-13176580D02*
X20247619Y-13252771D01*
X20247619Y-13252771D02*
X20171428Y-13290866D01*
X21866667Y-19862295D02*
X21600000Y-19481342D01*
X21409524Y-19862295D02*
X21409524Y-19062295D01*
X21409524Y-19062295D02*
X21714286Y-19062295D01*
X21714286Y-19062295D02*
X21790476Y-19100390D01*
X21790476Y-19100390D02*
X21828571Y-19138485D01*
X21828571Y-19138485D02*
X21866667Y-19214676D01*
X21866667Y-19214676D02*
X21866667Y-19328961D01*
X21866667Y-19328961D02*
X21828571Y-19405152D01*
X21828571Y-19405152D02*
X21790476Y-19443247D01*
X21790476Y-19443247D02*
X21714286Y-19481342D01*
X21714286Y-19481342D02*
X21409524Y-19481342D01*
X22628571Y-19862295D02*
X22171428Y-19862295D01*
X22400000Y-19862295D02*
X22400000Y-19062295D01*
X22400000Y-19062295D02*
X22323809Y-19176580D01*
X22323809Y-19176580D02*
X22247619Y-19252771D01*
X22247619Y-19252771D02*
X22171428Y-19290866D01*
X21909524Y-13462295D02*
X21528572Y-13462295D01*
X21528572Y-13462295D02*
X21528572Y-12662295D01*
X22176191Y-13043247D02*
X22442857Y-13043247D01*
X22557143Y-13462295D02*
X22176191Y-13462295D01*
X22176191Y-13462295D02*
X22176191Y-12662295D01*
X22176191Y-12662295D02*
X22557143Y-12662295D01*
X22900001Y-13462295D02*
X22900001Y-12662295D01*
X22900001Y-12662295D02*
X23090477Y-12662295D01*
X23090477Y-12662295D02*
X23204763Y-12700390D01*
X23204763Y-12700390D02*
X23280953Y-12776580D01*
X23280953Y-12776580D02*
X23319048Y-12852771D01*
X23319048Y-12852771D02*
X23357144Y-13005152D01*
X23357144Y-13005152D02*
X23357144Y-13119438D01*
X23357144Y-13119438D02*
X23319048Y-13271819D01*
X23319048Y-13271819D02*
X23280953Y-13348009D01*
X23280953Y-13348009D02*
X23204763Y-13424200D01*
X23204763Y-13424200D02*
X23090477Y-13462295D01*
X23090477Y-13462295D02*
X22900001Y-13462295D01*
X24766668Y-13386104D02*
X24728572Y-13424200D01*
X24728572Y-13424200D02*
X24614287Y-13462295D01*
X24614287Y-13462295D02*
X24538096Y-13462295D01*
X24538096Y-13462295D02*
X24423810Y-13424200D01*
X24423810Y-13424200D02*
X24347620Y-13348009D01*
X24347620Y-13348009D02*
X24309525Y-13271819D01*
X24309525Y-13271819D02*
X24271429Y-13119438D01*
X24271429Y-13119438D02*
X24271429Y-13005152D01*
X24271429Y-13005152D02*
X24309525Y-12852771D01*
X24309525Y-12852771D02*
X24347620Y-12776580D01*
X24347620Y-12776580D02*
X24423810Y-12700390D01*
X24423810Y-12700390D02*
X24538096Y-12662295D01*
X24538096Y-12662295D02*
X24614287Y-12662295D01*
X24614287Y-12662295D02*
X24728572Y-12700390D01*
X24728572Y-12700390D02*
X24766668Y-12738485D01*
X25109525Y-13462295D02*
X25109525Y-12662295D01*
X25109525Y-13043247D02*
X25566668Y-13043247D01*
X25566668Y-13462295D02*
X25566668Y-12662295D01*
X25909524Y-13233723D02*
X26290477Y-13233723D01*
X25833334Y-13462295D02*
X26100001Y-12662295D01*
X26100001Y-12662295D02*
X26366667Y-13462295D01*
X26633334Y-13462295D02*
X26633334Y-12662295D01*
X27014286Y-13462295D02*
X27014286Y-12662295D01*
X27014286Y-12662295D02*
X27471429Y-13462295D01*
X27471429Y-13462295D02*
X27471429Y-12662295D01*
X21757142Y-13900390D02*
X21680952Y-13862295D01*
X21680952Y-13862295D02*
X21566666Y-13862295D01*
X21566666Y-13862295D02*
X21452380Y-13900390D01*
X21452380Y-13900390D02*
X21376190Y-13976580D01*
X21376190Y-13976580D02*
X21338095Y-14052771D01*
X21338095Y-14052771D02*
X21299999Y-14205152D01*
X21299999Y-14205152D02*
X21299999Y-14319438D01*
X21299999Y-14319438D02*
X21338095Y-14471819D01*
X21338095Y-14471819D02*
X21376190Y-14548009D01*
X21376190Y-14548009D02*
X21452380Y-14624200D01*
X21452380Y-14624200D02*
X21566666Y-14662295D01*
X21566666Y-14662295D02*
X21642857Y-14662295D01*
X21642857Y-14662295D02*
X21757142Y-14624200D01*
X21757142Y-14624200D02*
X21795238Y-14586104D01*
X21795238Y-14586104D02*
X21795238Y-14319438D01*
X21795238Y-14319438D02*
X21642857Y-14319438D01*
X23966667Y-14662295D02*
X23966667Y-13862295D01*
X23966667Y-13862295D02*
X24157143Y-13862295D01*
X24157143Y-13862295D02*
X24271429Y-13900390D01*
X24271429Y-13900390D02*
X24347619Y-13976580D01*
X24347619Y-13976580D02*
X24385714Y-14052771D01*
X24385714Y-14052771D02*
X24423810Y-14205152D01*
X24423810Y-14205152D02*
X24423810Y-14319438D01*
X24423810Y-14319438D02*
X24385714Y-14471819D01*
X24385714Y-14471819D02*
X24347619Y-14548009D01*
X24347619Y-14548009D02*
X24271429Y-14624200D01*
X24271429Y-14624200D02*
X24157143Y-14662295D01*
X24157143Y-14662295D02*
X23966667Y-14662295D01*
X26976191Y-13862295D02*
X26595239Y-13862295D01*
X26595239Y-13862295D02*
X26557143Y-14243247D01*
X26557143Y-14243247D02*
X26595239Y-14205152D01*
X26595239Y-14205152D02*
X26671429Y-14167057D01*
X26671429Y-14167057D02*
X26861905Y-14167057D01*
X26861905Y-14167057D02*
X26938096Y-14205152D01*
X26938096Y-14205152D02*
X26976191Y-14243247D01*
X26976191Y-14243247D02*
X27014286Y-14319438D01*
X27014286Y-14319438D02*
X27014286Y-14509914D01*
X27014286Y-14509914D02*
X26976191Y-14586104D01*
X26976191Y-14586104D02*
X26938096Y-14624200D01*
X26938096Y-14624200D02*
X26861905Y-14662295D01*
X26861905Y-14662295D02*
X26671429Y-14662295D01*
X26671429Y-14662295D02*
X26595239Y-14624200D01*
X26595239Y-14624200D02*
X26557143Y-14586104D01*
X27242858Y-13862295D02*
X27509525Y-14662295D01*
X27509525Y-14662295D02*
X27776191Y-13862295D01*
%TO.C,C2*%
D11*
X4562500Y-22152500D02*
X5350000Y-22152500D01*
X4956250Y-21758750D02*
X4956250Y-22546250D01*
X5590000Y-21654437D02*
X5590000Y-22940000D01*
X5590000Y-21654437D02*
X6654437Y-20590000D01*
X5590000Y-26345563D02*
X5590000Y-25060000D01*
X5590000Y-26345563D02*
X6654437Y-27410000D01*
X6654437Y-20590000D02*
X12410000Y-20590000D01*
X6654437Y-27410000D02*
X12410000Y-27410000D01*
X12410000Y-20590000D02*
X12410000Y-22940000D01*
X12410000Y-27410000D02*
X12410000Y-25060000D01*
%TO.C,U1*%
X17090000Y-15440000D02*
X18910000Y-15440000D01*
X17090000Y-15490000D02*
X17090000Y-15440000D01*
X17090000Y-18560000D02*
X17090000Y-18510000D01*
X18910000Y-15440000D02*
X18910000Y-15490000D01*
X18910000Y-16610000D02*
X18910000Y-17390000D01*
X18910000Y-18510000D02*
X18910000Y-18560000D01*
X18910000Y-18560000D02*
X17090000Y-18560000D01*
X16550000Y-15490000D02*
X16310000Y-15160000D01*
X16790000Y-15160000D01*
X16550000Y-15490000D01*
G36*
X16550000Y-15490000D02*
G01*
X16310000Y-15160000D01*
X16790000Y-15160000D01*
X16550000Y-15490000D01*
G37*
%TO.C,R1*%
X21762742Y-17427500D02*
X22237258Y-17427500D01*
X21762742Y-18472500D02*
X22237258Y-18472500D01*
%TO.C,J1*%
X1440000Y-290000D02*
X1440000Y-12010000D01*
X1440000Y-12010000D02*
X2860000Y-12010000D01*
X2860000Y-12010000D02*
X2860000Y-7510000D01*
X6500000Y-290000D02*
X1440000Y-290000D01*
X6500000Y-290000D02*
X11560000Y-290000D01*
X8700000Y-10100000D02*
X9000000Y-9500000D01*
X9000000Y-9500000D02*
X9300000Y-10100000D01*
X9300000Y-10100000D02*
X8700000Y-10100000D01*
X10140000Y-12010000D02*
X10140000Y-7510000D01*
X11560000Y-290000D02*
X11560000Y-12010000D01*
X11560000Y-12010000D02*
X10140000Y-12010000D01*
X3750000Y-900000D02*
X4250000Y-900000D01*
X4250000Y-6400000D01*
X3750000Y-6400000D01*
X3750000Y-900000D01*
X6250000Y-900000D02*
X6750000Y-900000D01*
X6750000Y-6400000D01*
X6250000Y-6400000D01*
X6250000Y-900000D01*
X8750000Y-900000D02*
X9250000Y-900000D01*
X9250000Y-6400000D01*
X8750000Y-6400000D01*
X8750000Y-900000D01*
%TO.C,J2*%
X19440000Y-290000D02*
X19440000Y-12010000D01*
X19440000Y-12010000D02*
X20860000Y-12010000D01*
X20860000Y-12010000D02*
X20860000Y-7510000D01*
X24500000Y-290000D02*
X19440000Y-290000D01*
X24500000Y-290000D02*
X29560000Y-290000D01*
X26700000Y-10100000D02*
X27000000Y-9500000D01*
X27000000Y-9500000D02*
X27300000Y-10100000D01*
X27300000Y-10100000D02*
X26700000Y-10100000D01*
X28140000Y-12010000D02*
X28140000Y-7510000D01*
X29560000Y-290000D02*
X29560000Y-12010000D01*
X29560000Y-12010000D02*
X28140000Y-12010000D01*
X21750000Y-900000D02*
X22250000Y-900000D01*
X22250000Y-6400000D01*
X21750000Y-6400000D01*
X21750000Y-900000D01*
X24250000Y-900000D02*
X24750000Y-900000D01*
X24750000Y-6400000D01*
X24250000Y-6400000D01*
X24250000Y-900000D01*
X26750000Y-900000D02*
X27250000Y-900000D01*
X27250000Y-6400000D01*
X26750000Y-6400000D01*
X26750000Y-900000D01*
%TO.C,C1*%
X17490000Y-13640580D02*
X17490000Y-13359420D01*
X18510000Y-13640580D02*
X18510000Y-13359420D01*
%TD*%
M02*
