%TF.GenerationSoftware,KiCad,Pcbnew,10.0.6*%
%TF.CreationDate,2026-09-15T01:01:31-04:00*%
%TF.ProjectId,codex-micro-led-driver,636f6465-782d-46d6-9963-726f2d6c6564,rev?*%
%TF.SameCoordinates,Original*%
%TF.FileFunction,Copper,L1,Top*%
%TF.FilePolarity,Positive*%
%FSLAX46Y46*%
G04 Gerber Fmt 4.6, Leading zero omitted, Abs format (unit mm)*
G04 Created by KiCad (PCBNEW 10.0.6) date 2026-09-15 01:01:31*
%MOMM*%
%LPD*%
G01*
G04 APERTURE LIST*
G04 Aperture macros list*
%AMRoundRect*
0 Rectangle with rounded corners*
0 $1 Rounding radius*
0 $2 $3 $4 $5 $6 $7 $8 $9 X,Y pos of 4 corners*
0 Add a 4 corners polygon primitive as box body*
4,1,4,$2,$3,$4,$5,$6,$7,$8,$9,$2,$3,0*
0 Add four circle primitives for the rounded corners*
1,1,$1+$1,$2,$3*
1,1,$1+$1,$4,$5*
1,1,$1+$1,$6,$7*
1,1,$1+$1,$8,$9*
0 Add four rect primitives between the rounded corners*
20,1,$1+$1,$2,$3,$4,$5,0*
20,1,$1+$1,$4,$5,$6,$7,0*
20,1,$1+$1,$6,$7,$8,$9,0*
20,1,$1+$1,$8,$9,$2,$3,0*%
G04 Aperture macros list end*
%TA.AperFunction,ComponentPad*%
%ADD10RoundRect,0.250000X0.600000X0.725000X-0.600000X0.725000X-0.600000X-0.725000X0.600000X-0.725000X0*%
%TD*%
%TA.AperFunction,ComponentPad*%
%ADD11O,1.700000X1.950000*%
%TD*%
%TA.AperFunction,SMDPad,CuDef*%
%ADD12RoundRect,0.250000X-1.500000X-0.550000X1.500000X-0.550000X1.500000X0.550000X-1.500000X0.550000X0*%
%TD*%
%TA.AperFunction,SMDPad,CuDef*%
%ADD13RoundRect,0.200000X-0.200000X-0.275000X0.200000X-0.275000X0.200000X0.275000X-0.200000X0.275000X0*%
%TD*%
%TA.AperFunction,SMDPad,CuDef*%
%ADD14RoundRect,0.150000X-0.512500X-0.150000X0.512500X-0.150000X0.512500X0.150000X-0.512500X0.150000X0*%
%TD*%
%TA.AperFunction,SMDPad,CuDef*%
%ADD15RoundRect,0.225000X0.250000X-0.225000X0.250000X0.225000X-0.250000X0.225000X-0.250000X-0.225000X0*%
%TD*%
%TA.AperFunction,ViaPad*%
%ADD16C,0.800000*%
%TD*%
%TA.AperFunction,Conductor*%
%ADD17C,0.600000*%
%TD*%
%TA.AperFunction,Conductor*%
%ADD18C,0.800000*%
%TD*%
%TA.AperFunction,Conductor*%
%ADD19C,0.350000*%
%TD*%
G04 APERTURE END LIST*
D10*
%TO.P,J2,1*%
%TO.N,+5V*%
X27000000Y-8000000D03*
D11*
%TO.P,J2,2*%
%TO.N,DATA_OUT*%
X24500000Y-8000000D03*
%TO.P,J2,3*%
%TO.N,GND*%
X22000000Y-8000000D03*
%TD*%
D12*
%TO.P,C2,1*%
%TO.N,+5V*%
X6200000Y-24000000D03*
%TO.P,C2,2*%
%TO.N,GND*%
X11800000Y-24000000D03*
%TD*%
D10*
%TO.P,J1,1*%
%TO.N,+5V*%
X9000000Y-8000000D03*
D11*
%TO.P,J1,2*%
%TO.N,DATA_IN*%
X6500000Y-8000000D03*
%TO.P,J1,3*%
%TO.N,GND*%
X4000000Y-8000000D03*
%TD*%
D13*
%TO.P,R1,1*%
%TO.N,DATA_BUFFERED*%
X21175000Y-17950000D03*
%TO.P,R1,2*%
%TO.N,DATA_OUT*%
X22825000Y-17950000D03*
%TD*%
D14*
%TO.P,U1,1*%
%TO.N,GND*%
X16862500Y-16050000D03*
%TO.P,U1,2*%
%TO.N,DATA_IN*%
X16862500Y-17000000D03*
%TO.P,U1,3*%
%TO.N,GND*%
X16862500Y-17950000D03*
%TO.P,U1,4*%
%TO.N,DATA_BUFFERED*%
X19137500Y-17950000D03*
%TO.P,U1,5*%
%TO.N,+5V*%
X19137500Y-16050000D03*
%TD*%
D15*
%TO.P,C1,1*%
%TO.N,+5V*%
X18000000Y-14275000D03*
%TO.P,C1,2*%
%TO.N,GND*%
X18000000Y-12725000D03*
%TD*%
D16*
%TO.N,+5V*%
X4200000Y-24000000D03*
X20500000Y-15550000D03*
%TO.N,GND*%
X13800000Y-24000000D03*
X19300000Y-11000000D03*
X15500000Y-17950000D03*
X15500000Y-16050000D03*
%TD*%
%TO.N,+5V*%
D17*
X20500000Y-14275000D02*
X18000000Y-14275000D01*
X20500000Y-15550000D02*
X20500000Y-14275000D01*
D18*
X4200000Y-24000000D02*
X6200000Y-24000000D01*
D17*
X20500000Y-15550000D02*
X19137500Y-16050000D01*
%TO.N,GND*%
X19300000Y-12725000D02*
X19300000Y-11000000D01*
X16862500Y-17950000D02*
X15500000Y-17950000D01*
X16862500Y-16050000D02*
X15500000Y-16050000D01*
X18000000Y-12725000D02*
X19300000Y-12725000D01*
D18*
X11800000Y-24000000D02*
X13800000Y-24000000D01*
%TO.N,DATA_IN*%
D19*
X6500000Y-8000000D02*
X6500000Y-17000000D01*
X6500000Y-17000000D02*
X16862500Y-17000000D01*
%TO.N,DATA_BUFFERED*%
X19137500Y-17950000D02*
X21175000Y-17950000D01*
%TO.N,DATA_OUT*%
X22825000Y-17950000D02*
X24500000Y-17950000D01*
X24500000Y-17950000D02*
X24500000Y-8000000D01*
%TD*%
M02*
